<svg id="Layer_1" data-name="Layer 1" xmlns="http://www.w3.org/2000/svg" viewBox="0 0 1130.74 266.27"><defs><style>.cls-1{fill:none;stroke:#000;stroke-miterlimit:10;stroke-width:15px;}.cls-2{fill:#ff1d25;}</style></defs><rect class="cls-1" x="7.5" y="70.87" width="798.49" height="170.7" rx="15.02"/><path class="cls-2" d="M886.66,174.68A71.65,71.65,0,0,1,895,140.12a62,62,0,0,1,23.45-24.42q15.06-8.88,34.25-8.89a65.74,65.74,0,0,1,34,8.89,62.08,62.08,0,0,1,23.44,24.42,71.54,71.54,0,0,1,8.38,34.56q0,19.29-8.38,34.68a62.2,62.2,0,0,1-23.44,24.29,65.64,65.64,0,0,1-34,8.89q-19.18,0-34.25-8.89A62.16,62.16,0,0,1,895,209.36Q886.67,194,886.66,174.68Zm100.1,0a40.86,40.86,0,0,0-4.62-19.79,32.71,32.71,0,0,0-12.39-13,33.5,33.5,0,0,0-46.52,13,40,40,0,0,0-4.74,19.79,40.73,40.73,0,0,0,4.74,19.91,33.75,33.75,0,0,0,46.52,13.14,32.58,32.58,0,0,0,12.39-13Q986.76,186.21,986.76,174.68Z" transform="translate(-40.17 -26.35)"/><path class="cls-2" d="M1041.9,110.82h29.64v15.53h2a41.31,41.31,0,0,1,14.89-13.9,44.1,44.1,0,0,1,22.46-5.64,56.57,56.57,0,0,1,30.64,8.64,59.26,59.26,0,0,1,21.61,24.17q7.82,15.52,7.81,35.06,0,19.78-7.81,35.18a59.4,59.4,0,0,1-21.61,24,56.57,56.57,0,0,1-30.64,8.64,45.63,45.63,0,0,1-22.58-5.51q-9.88-5.5-14.77-13.77h-2l2,18v51.34H1041.9Zm97.18,63.86a40.22,40.22,0,0,0-4.63-19.54A33.62,33.62,0,0,0,1122,142a32.34,32.34,0,0,0-16.82-4.64,32,32,0,0,0-16.58,4.64,33.62,33.62,0,0,0-12.44,13.14,43.53,43.53,0,0,0,0,39.07,34.47,34.47,0,0,0,12.44,13.27,31.25,31.25,0,0,0,16.58,4.76,31.64,31.64,0,0,0,16.82-4.76,34.47,34.47,0,0,0,12.44-13.27A40.15,40.15,0,0,0,1139.08,174.68Z" transform="translate(-40.17 -26.35)"/><path d="M834,73.75H773.14V26.35H936v47.4H875.09V291.47H834Z" transform="translate(-40.17 -26.35)"/><path d="M74.21,205.78l16.05-6.32A23.74,23.74,0,0,0,96.71,211a15.92,15.92,0,0,0,11.38,4.3,16.54,16.54,0,0,0,9.74-2.84,9.12,9.12,0,0,0,4-7.9,10.32,10.32,0,0,0-3.86-8.29q-3.85-3.22-13.72-6.89l-5.56-2A38.38,38.38,0,0,1,83.82,178a21.48,21.48,0,0,1-6.2-15.75,23.75,23.75,0,0,1,3.64-12.89,25.15,25.15,0,0,1,10.3-9.17,33.31,33.31,0,0,1,15.14-3.35q12.27,0,19.35,5.75a29.76,29.76,0,0,1,9.73,13.47l-15,6.32a15.11,15.11,0,0,0-4.87-7,13.65,13.65,0,0,0-8.91-2.84,15.3,15.3,0,0,0-9.17,2.59,8,8,0,0,0-3.61,6.76,8.64,8.64,0,0,0,3.43,6.89q3.42,2.85,11.28,5.51l5.71,1.89q11.79,4,18.07,10.69T139,204.26a24.43,24.43,0,0,1-4.56,15,27.77,27.77,0,0,1-11.69,9.16,37.26,37.26,0,0,1-14.73,3,34.44,34.44,0,0,1-21-6.7Q77.88,218,74.21,205.78Z" transform="translate(-40.17 -26.35)"/><path d="M155.13,138.89H172.2v36.16h38.06V138.89h17.07v90.53H210.26V191.24H172.2v38.18H155.13Z" transform="translate(-40.17 -26.35)"/><path class="cls-2" d="M273.48,138.89h19.6l34,90.53H308.25l-7.59-21.62H266l-7.59,21.62H239.59Zm21.62,53.23-8-22.76-3.28-10.87h-1l-3.28,10.87-8.1,22.76Z" transform="translate(-40.17 -26.35)"/><path d="M339.35,138.89h33a33,33,0,0,1,15.75,3.67,26.47,26.47,0,0,1,10.68,10.18,28.7,28.7,0,0,1,3.79,14.73,23.86,23.86,0,0,1-5.5,15.49,31.29,31.29,0,0,1-13.84,9.8l-.13.88,24.28,34.77v1h-19.6l-23.39-34h-8v34H339.35Zm32.88,40.84a13.08,13.08,0,0,0,9.48-3.54,11.93,11.93,0,0,0,3.67-9,12.23,12.23,0,0,0-12.9-12.51H356.42v25Z" transform="translate(-40.17 -26.35)"/><path d="M419.52,138.89h57.4v16.19H436.59v21h36.29v16.18H436.59v21h40.33v16.18h-57.4Z" transform="translate(-40.17 -26.35)"/><path d="M494.5,138.89h22l24,63.6h1l24-63.6h22.12v90.53H570.74V184.79l1-15h-1l-23,59.68H534.45l-23.14-59.68h-1l1,15v44.63H494.5Z" transform="translate(-40.17 -26.35)"/><path class="cls-2" d="M603.74,184.16a47.46,47.46,0,0,1,6.2-23.9,45.46,45.46,0,0,1,17-17.13,49.48,49.48,0,0,1,48.18,0,45.41,45.41,0,0,1,17,17.13,49.23,49.23,0,0,1,0,47.8,45.41,45.41,0,0,1-17,17.13,49.48,49.48,0,0,1-48.18,0,45.46,45.46,0,0,1-17-17.13A47.46,47.46,0,0,1,603.74,184.16Zm77.51,0a32.54,32.54,0,0,0-4-16.19,28.35,28.35,0,0,0-10.94-11,30.65,30.65,0,0,0-15.3-3.92A30.28,30.28,0,0,0,635.8,157a28.47,28.47,0,0,0-10.88,11,34.9,34.9,0,0,0,0,32.37,28.4,28.4,0,0,0,10.88,11A30.18,30.18,0,0,0,651,215.26a30.55,30.55,0,0,0,15.3-3.92,28.28,28.28,0,0,0,10.94-11A32.47,32.47,0,0,0,681.25,184.16Z" transform="translate(-40.17 -26.35)"/><path d="M714.51,138.89h30.6q14.14,0,24.65,5.69A39.87,39.87,0,0,1,786,160.51a47.93,47.93,0,0,1,5.69,23.65A47.92,47.92,0,0,1,786,207.8a39.81,39.81,0,0,1-16.19,15.93q-10.5,5.7-24.65,5.69h-30.6Zm29.84,74.35q14.65,0,22.38-7.78t7.71-21.3q0-13.53-7.71-21.31t-22.38-7.77H731.58v58.16Z" transform="translate(-40.17 -26.35)"/></svg>