<?xml version="1.0" encoding="utf-8"?>
<!-- Generator: Adobe Illustrator 25.2.1, SVG Export Plug-In . SVG Version: 6.00 Build 0)  -->
<svg version="1.1" id="Layer_1" xmlns="http://www.w3.org/2000/svg" xmlns:xlink="http://www.w3.org/1999/xlink" x="0px" y="0px" width="1500px" height="325px" viewBox="0 0 1500 325" enable-background="new 0 0 1500 325" xml:space="preserve">
<style type="text/css">
	.st0{fill:none;stroke:#010101;stroke-width:15;stroke-miterlimit:10;}
	.st1{fill:#EE2D30;}
	.st2{fill:#010101;}
	.st3{fill:none;}
</style>
<path class="st0" d="M876.5,277.9H41.6c-8.3,0-15-6.7-15-15v-157c0-8.3,6.7-15,15-15h834.9c8.3,0,15,6.7,15,15v157
	C891.5,271.2,884.8,277.9,876.5,277.9z"/>
<g>
	<path class="st1" d="M1000.7,86.9c5.5,0,11.3,0.2,17.4,0.5c6.1,0.4,12,1.2,17.7,2.5c5.7,1.3,11.1,3.3,16.1,5.9
		c5,2.6,9.3,6.2,12.8,10.8c5.4,7.3,9.1,15.5,11.1,24.6c2,9.1,3,18.9,3,29.5c0,15.5-1.7,28.5-4.9,38.8c-3.3,10.3-7.5,17.8-12.7,22.4
		c-5.1,4.6-12.4,8.2-22,10.9s-21.3,4.1-35,4.1c-12.7,0-23.9-1.2-33.7-3.5c-9.8-2.4-17.9-6.5-24.2-12.3c-5.9-6.1-10.4-15.1-13.4-26.9
		c-2.8-11.5-4.2-23.8-4.2-36.8c0-3.2,0.1-6,0.3-8.3c0.2-2.3,0.3-5.3,0.5-9c1.8-11.3,5-20.8,9.5-28.3c3.3-5.3,7.5-9.6,12.5-12.9
		c5-3.3,10.3-5.8,15.9-7.6c5.6-1.7,11.3-2.9,17.1-3.6C990.2,87.2,995.6,86.9,1000.7,86.9z M976.8,147.3c-0.9,4.6-1.3,10-1.3,16.3
		c0,5.9,0.4,11.4,1.3,16.5c0.9,5.1,2.3,9.6,4.3,13.3c2,3.8,4.7,6.6,8,8.6s7.4,2.8,12.1,2.5c4.4,0,8.7-0.8,13-2.5
		c5.2-2.3,8.8-5.4,10.9-9.4c2-3.9,3.4-8.1,4-12.6c0.5-2.1,0.9-3.9,1.2-5.3c0.3-1.4,0.5-2.6,0.6-3.8c0.1-1.1,0.2-2.2,0.3-3.3
		c0.1-1.1,0.1-2.5,0.1-4.2c0-8.2-0.8-15.3-2.5-21.4c-1.7-6-4.1-10.3-7.3-12.9c-3-2.7-6.1-4.4-9.3-5.3c-3.2-0.8-6.3-1.3-9.4-1.3
		c-7.4,0-13.5,2.1-18.3,6.4C979.7,133.4,977.1,139.4,976.8,147.3z"/>
	<path class="st1" d="M1095.5,86.9h63.2c17.3,0,31.3,1.4,41.9,4.1c10.6,2.7,18.3,8.5,23,17.4c5,8.8,8.1,17.2,9.5,25.3
		c1.4,8.1,2.1,17.2,2.1,27.1c0,9.9-0.7,18.9-2.1,26.9c-1.4,8-4.4,16.4-9,25.2c-4.5,8.8-11.4,14.7-20.6,17.8
		c-9.2,3.1-21.4,4.7-36.7,4.7h-7.6l-18.8-31.6v89h-45V86.9z M1140.5,197.9h15c6.7,0.6,12.2,0.1,16.7-1.7c4.5-1.7,8-4.3,10.7-7.7
		c2.7-3.4,4.5-7.3,5.4-11.8c0.9-4.5,1.2-9.1,0.9-13.9c0-11-1.7-19-5-24.1c-1.5-2.8-3.3-4.9-5.2-6.4c-1.9-1.5-4.2-2.7-6.9-3.6
		c-2.7-0.8-5.8-1.4-9.4-1.5c-3.6-0.2-7.8-0.3-12.7-0.3h-9.5V197.9z"/>
</g>
<g>
	<path class="st2" d="M784.9,14.6h223.4l-27.8,56.6h-59.2v231.9h-57.7V71.2h-78.7V14.6z"/>
</g>
<g>
	<path class="st2" d="M146.9,136.4l-12,19.5H99.2h-3.7c-2.5-0.2-4.7-0.1-6.4,0.4c-1.7,0.4-3.1,1.1-4.1,1.9c-1,0.8-1.8,1.8-2.2,3
		c-0.4,1.2-0.7,2.4-0.8,3.8c0,1.5,0.5,3.2,1.5,5c1,1.7,2.6,2.7,4.7,3c2.1,0.4,5,0.5,8.7,0.5h15.7c7.4,0,13.2,1,17.5,3.1
		c2.2,1,4.3,2.4,6.2,4.2c1.9,1.8,3.5,3.9,4.8,6.3c1.4,2.4,2.4,5.1,3.2,8c0.8,3,1.2,6.1,1.2,9.3c0,7.3-1.6,13.6-4.7,19
		c-2.9,5.2-6.8,8.6-11.6,10.2c-4.8,1.4-11.1,2.1-18.9,2.1h-52v-19.6h44.3h2.5c2.8,0.2,5.2,0,7.3-0.4c2.1-0.5,3.7-1.1,5.1-2.1
		c1.3-0.9,2.3-2,2.9-3.2c0.6-1.2,0.8-2.5,0.7-3.9c-0.1-2.5-1.1-4.6-3-6.4c-1.9-1.8-4.7-2.5-8.4-2.2h-3.7H90.2c-6.6,0-12.2-1-16.5-3
		c-2.3-1.1-4.4-2.6-6.4-4.5c-1.9-1.9-3.6-4.1-5-6.6c-1.4-2.5-2.5-5.2-3.3-8.2c-0.8-3-1.2-6.2-1.2-9.5c0-6.4,1.4-12.1,4.1-17.3
		c1.4-2.5,3.1-4.5,5.2-6.2c2.1-1.6,4.5-2.9,7.1-3.8c2.7-0.9,5.5-1.6,8.6-1.9c3.1-0.4,6.2-0.5,9.5-0.5h3.8H146.9z"/>
	<path class="st2" d="M154.3,136.4h23.4v38.4h34.6v-38.4h23.3v99.3h-23.3v-57.6l-11.5,18.1h-23.1v39.5h-23.4V136.4z"/>
	<path class="st1" d="M308.1,136.4l35.6,99.3h-24.7l-6.6-18h-22.6l-11.5-19.7l-14.1,37.7h-25.3l36.3-99.3H308.1z M279.1,196.2h26.3
		l-13.1-37.4L279.1,196.2z"/>
	<path class="st2" d="M348,136.4h52.7c3.4,0,6.4,0.1,9.1,0.3c2.7,0.2,5.1,0.6,7.3,1.2c2.1,0.6,4.1,1.5,5.8,2.6
		c1.7,1.2,3.3,2.7,4.7,4.7c3,3.9,5,7.9,5.9,12c1,4.1,1.4,8.1,1.4,12.1c0,3.9-0.4,7.6-1.1,11.1c-0.8,3.5-2.2,6.6-4.3,9.1
		c-2,2.6-4.5,4.6-7.6,6c-3,1.4-5.4,2.3-7.2,2.7c-1.8,0.4-3.6,0.6-5.6,0.6l24.3,36.9h-27.3l-34.6-53.9v53.9H348V136.4z M371.6,179
		h19.6h2.7c6.1,0.4,10.4-0.4,12.9-2.3c2.5-1.9,3.9-5.1,4-9.6c0.3-3.9-1-6.8-3.8-8.7c-2.8-1.9-7-2.8-12.7-2.6h-2.7h-20.1V179z"/>
	<path class="st2" d="M442.3,136.4H516l-10.6,19.5h-39.7v22.2h48v19.4h-48v18.7h48v19.6h-71.4V136.4z"/>
	<path class="st2" d="M522.9,136.4h37.8l18.1,79.8l18.3-79.8h38.1v99.3h-21.5v-80.5l-19.2,80.5h-32.3l-18-82.7v82.7h-21.3V136.4z"/>
	<path class="st1" d="M690.8,135.7c3.3,0,6.7,0.2,10.2,0.6c3.5,0.4,6.9,1.1,10.1,2.2c3.3,1,6.3,2.4,9.2,4.2c2.8,1.8,5.3,4,7.4,6.6
		c3.8,4.8,6.6,10.6,8.3,17.4c1.7,6.8,2.5,13.7,2.5,20.7c0,8.4-1.1,16-3.2,22.8c-2.1,6.8-5.1,12.1-9,16c-3.6,3.8-7.6,6.3-12,7.6
		c-4.2,1.1-8.3,1.9-12.1,2.2c-3.8,0.4-7.5,0.5-11,0.5c-7.5,0-14.4-0.7-20.8-2.2c-6.4-1.5-11.7-4.1-16.1-8c-4.3-3.9-7.6-9.7-9.9-17.5
		c-2.3-7.8-3.4-15.8-3.4-24c0-1,0-1.9,0-2.7s0-1.5,0.1-2l1.7-11c0.9-6.1,3.3-11.9,7.1-17.5c2.5-3.6,5.3-6.5,8.5-8.6
		c3.2-2.1,6.6-3.7,10.2-4.8c3.6-1.1,7.2-1.8,11-2.2C683.3,135.9,687.1,135.7,690.8,135.7z M664.9,184.2c0,5.8,0.7,11,2.1,15.6
		c1.4,4.7,4.1,8.4,8.3,11.1c4.1,2.7,9,4,14.6,4c4.1,0,8.1-0.9,11.9-2.7c3.8-1.8,6.8-4.5,8.8-8c2-3.3,3.2-6.5,3.5-9.4
		c0.4-2.9,0.6-4.7,0.7-5.5c0.1-0.8,0.1-1.5,0.1-2.1c0-5-0.7-9.7-2-14.1c-1.3-4.4-3.6-8-6.9-10.8c-2.1-1.5-4.7-2.6-8-3.5
		c-3.2-0.8-6.4-1.3-9.4-1.3c-3,0-6.6,0.7-10.7,2.1c-4.1,1.4-7.3,4.3-9.5,8.7C666,172.7,664.9,178,664.9,184.2z"/>
	<path class="st2" d="M790.5,136.4c4.8,0,9.2,0.2,13.2,0.6c4,0.4,7.6,1.1,10.8,2.2c3.2,1.1,6,2.6,8.5,4.5c2.5,1.9,4.5,4.4,6.2,7.5
		c3.5,6.1,5.9,12,7.2,17.6c1.3,5.6,2,11.5,2,17.7c0,6-0.6,11.7-1.7,17c-1.1,5.3-3.4,10.9-6.7,16.8c-3.3,5.9-7.9,9.9-13.9,12.1
		c-6,2.2-13.8,3.2-23.2,3.2H746v-99.3H790.5z M769.4,214.7h13h4.5c5.8,0,10.4-0.7,14-2c3.6-1.3,6.3-3.6,8.1-6.9
		c1.8-3.3,3.1-6.6,3.7-9.8c0.6-3.2,1-6.5,1-10c0-7.6-1.3-13.4-3.9-17.5c-1.2-2.1-2.6-3.9-4.1-5.2c-1.5-1.4-3.1-2.4-4.9-3.2
		c-1.8-0.8-3.8-1.3-6.1-1.6c-2.3-0.3-4.8-0.4-7.7-0.4h-3.9h-13.7V214.7z"/>
</g>
<g>
</g>
<g>
	<rect x="88" y="242.1" class="st3" width="1.7" height="0"/>
</g>
<g>
</g>
<g>
</g>
<g>
</g>
<g>
</g>
<g>
</g>
<g>
</g>
</svg>
