<?xml version="1.0" encoding="utf-8"?>
<!-- Generator: Adobe Illustrator 25.2.1, SVG Export Plug-In . SVG Version: 6.00 Build 0)  -->
<svg version="1.1" id="Layer_1" xmlns="http://www.w3.org/2000/svg" xmlns:xlink="http://www.w3.org/1999/xlink" x="0px" y="0px"
	 viewBox="0 0 1500 325" style="enable-background:new 0 0 1500 325;" xml:space="preserve">
<style type="text/css">
	.st0{fill:none;stroke:#000000;stroke-width:15;stroke-miterlimit:10;}
	.st1{fill:#FF1D25;}
	.st2{fill:none;}
</style>
<path class="st0" d="M959.3,360.7H-108.5c-8.3,0-15-6.7-15-15V141c0-8.3,6.7-15,15-15H959.3c8.3,0,15,6.7,15,15v204.6
	C974.3,353.9,967.6,360.7,959.3,360.7z"/>
<g>
	<g>
		<path d="M1765.2-882.6c1.9,0,1.9-3,0-3C1763.2-885.6,1763.2-882.6,1765.2-882.6L1765.2-882.6z"/>
	</g>
</g>
<g>
	<g>
		<path d="M2218.6-528.1c1.9,0,1.9-3,0-3C2216.7-531.1,2216.7-528.1,2218.6-528.1L2218.6-528.1z"/>
	</g>
</g>
<g>
	<path class="st1" d="M1112.9,120.9c7,0,14.3,0.2,22.1,0.7c7.8,0.4,15.3,1.5,22.5,3.1c7.2,1.6,14,4.1,20.4,7.4
		c6.4,3.3,11.8,7.8,16.2,13.5c6.9,9.2,11.6,19.5,14.1,30.8c2.6,11.4,3.8,23.7,3.8,37.1c0,19.5-2.1,35.7-6.3,48.7
		c-4.2,12.9-9.5,22.3-16.1,28.2c-6.4,5.7-15.7,10.3-28,13.7s-27,5.1-44.4,5.1c-16.1,0-30.4-1.5-42.8-4.5c-12.5-3-22.7-8.1-30.7-15.4
		c-7.5-7.6-13.2-18.9-17-33.8c-3.6-14.5-5.4-29.9-5.4-46.2c0-4,0.1-7.5,0.3-10.4c0.2-2.9,0.4-6.7,0.7-11.3
		c2.3-14.2,6.3-26.1,12.1-35.5c4.2-6.6,9.5-12,15.9-16.1c6.4-4.1,13.1-7.3,20.2-9.5c7.1-2.2,14.4-3.7,21.7-4.5
		C1099.6,121.3,1106.5,120.9,1112.9,120.9z M1082.5,196.8c-1.1,5.7-1.6,12.6-1.6,20.5c0,7.4,0.5,14.3,1.6,20.8
		c1.1,6.4,2.9,12,5.5,16.7c2.6,4.7,6,8.3,10.2,10.8c4.2,2.5,9.4,3.6,15.3,3.1c5.5,0,11-1.1,16.5-3.2c6.6-2.9,11.2-6.8,13.8-11.8
		c2.6-4.9,4.3-10.2,5.1-15.8c0.7-2.7,1.2-4.9,1.5-6.6c0.4-1.7,0.6-3.3,0.7-4.7c0.1-1.4,0.2-2.8,0.3-4.1c0.1-1.3,0.2-3.1,0.2-5.2
		c0-10.3-1.1-19.2-3.2-26.8c-2.1-7.6-5.2-13-9.2-16.2c-3.8-3.4-7.7-5.6-11.7-6.6c-4-1.1-8-1.6-11.9-1.6c-9.4,0-17.1,2.7-23.2,8
		C1086.3,179.3,1083,186.9,1082.5,196.8z"/>
	<path class="st1" d="M1233.2,120.9h80.2c22,0,39.7,1.7,53.2,5.1c13.5,3.4,23.2,10.7,29.2,21.8c6.3,11,10.3,21.6,12.1,31.8
		c1.7,10.2,2.6,21.5,2.6,34c0,12.4-0.9,23.7-2.6,33.8c-1.7,10.1-5.5,20.6-11.4,31.6c-5.8,11-14.5,18.4-26.2,22.4
		c-11.7,3.9-27.2,5.9-46.6,5.9h-9.6l-23.8-39.7v111.6h-57.1V120.9z M1290.3,260.3h19.1c8.5,0.8,15.5,0.1,21.2-2.1
		c5.7-2.2,10.2-5.4,13.5-9.7c3.4-4.3,5.7-9.2,6.9-14.8c1.2-5.6,1.6-11.4,1.1-17.5c0-13.8-2.1-23.9-6.4-30.3c-2-3.5-4.2-6.2-6.6-8.1
		c-2.4-1.9-5.4-3.4-8.7-4.5c-3.4-1.1-7.3-1.7-11.9-1.9c-4.6-0.2-9.9-0.3-16.1-0.3h-12.1V260.3z"/>
</g>
<g>
	<path d="M821.9,15.1h275.4L1063,86.7h-72.9V380H919V86.7h-97V15.1z"/>
</g>
<g>
	<path d="M29.2,183.1L14,207.6h-45.2H-36c-3.2-0.2-5.9-0.1-8.1,0.5c-2.2,0.5-3.9,1.3-5.2,2.4c-1.3,1-2.2,2.3-2.8,3.7
		c-0.5,1.4-0.8,3-1,4.7c0,1.9,0.6,4,2,6.3c1.3,2.1,3.3,3.4,6,3.8c2.7,0.5,6.4,0.7,11,0.7h19.9c9.4,0,16.8,1.3,22.2,3.9
		c2.8,1.2,5.4,3,7.8,5.3c2.4,2.3,4.4,4.9,6.2,7.9c1.7,3,3.1,6.4,4.1,10.1c1,3.7,1.5,7.6,1.5,11.7c0,9.2-2,17.1-5.9,23.9
		c-3.7,6.6-8.6,10.8-14.8,12.8c-6.1,1.8-14.1,2.6-24,2.6h-66v-24.5h56.2h3.1c3.6,0.2,6.6,0.1,9.3-0.5c2.6-0.6,4.8-1.4,6.5-2.6
		c1.7-1.2,2.9-2.5,3.7-4c0.7-1.5,1-3.1,0.9-4.9c-0.1-3.1-1.4-5.8-3.8-8.1c-2.4-2.3-6-3.2-10.6-2.7h-4.7h-20.2
		c-8.4,0-15.4-1.3-21-3.8c-2.9-1.4-5.6-3.3-8.1-5.7c-2.4-2.4-4.5-5.1-6.3-8.2c-1.8-3.1-3.2-6.5-4.2-10.3c-1-3.8-1.5-7.7-1.5-11.9
		c0-8,1.7-15.2,5.2-21.7c1.8-3.1,4-5.7,6.6-7.7c2.7-2,5.7-3.6,9-4.8c3.4-1.2,7-2,10.9-2.4c3.9-0.5,7.9-0.7,12.1-0.7h4.8H29.2z"/>
	<path d="M38.6,183.1h29.7v48.1h44v-48.1h29.6v124.6h-29.6v-72.3l-14.6,22.7H68.3v49.6H38.6V183.1z"/>
	<path class="st1" d="M233.8,183.1l45.2,124.6h-31.3l-8.3-22.6h-28.7l-14.6-24.7l-17.9,47.3H146l46.1-124.6H233.8z M197,258.2h33.4
		l-16.6-46.9L197,258.2z"/>
	<path d="M284.5,183.1h66.9c4.3,0,8.2,0.1,11.6,0.4c3.4,0.3,6.5,0.8,9.2,1.5c2.7,0.7,5.1,1.8,7.3,3.3c2.1,1.5,4.2,3.4,6,5.9
		c3.8,4.9,6.3,9.9,7.5,15c1.2,5.2,1.8,10.2,1.8,15.2c0,4.9-0.5,9.5-1.4,13.9c-1,4.4-2.8,8.2-5.4,11.5c-2.5,3.2-5.7,5.7-9.6,7.5
		c-3.8,1.8-6.9,2.9-9.2,3.4c-2.3,0.5-4.6,0.8-7,0.8l30.8,46.3h-34.6l-44-67.7v67.7h-29.9V183.1z M314.4,236.6h24.9h3.5
		c7.8,0.5,13.2-0.5,16.4-2.9c3.2-2.4,4.9-6.5,5.1-12.1c0.3-4.9-1.3-8.5-4.8-10.9c-3.5-2.4-8.9-3.5-16.1-3.2h-3.5h-25.6V236.6z"/>
	<path d="M404.1,183.1h93.5l-13.4,24.4h-50.4v27.8h60.9v24.4h-60.9v23.4h60.9v24.5h-90.6V183.1z"/>
	<path d="M506.5,183.1h48l23,100.1l23.3-100.1H649v124.6h-27.2v-101l-24.4,101h-41l-22.8-103.8v103.8h-27.1V183.1z"/>
	<path class="st1" d="M719.5,182.2c4.2,0,8.5,0.3,12.9,0.8c4.4,0.5,8.7,1.4,12.9,2.7c4.2,1.3,8,3,11.6,5.2c3.6,2.2,6.7,5,9.4,8.3
		c4.9,6.1,8.4,13.3,10.5,21.9c2.1,8.5,3.2,17.2,3.2,25.9c0,10.6-1.4,20.1-4.1,28.6c-2.7,8.5-6.5,15.2-11.4,20.1
		c-4.5,4.8-9.6,7.9-15.3,9.5c-5.4,1.4-10.5,2.3-15.4,2.8c-4.9,0.5-9.5,0.7-14,0.7c-9.5,0-18.3-0.9-26.4-2.8
		c-8.1-1.8-14.9-5.2-20.4-10.1c-5.5-4.9-9.7-12.2-12.6-21.9c-2.9-9.7-4.3-19.8-4.3-30.1c0-1.2,0-2.4,0-3.4c0-1,0.1-1.8,0.2-2.5
		l2.1-13.8c1.1-7.6,4.1-14.9,9-21.9c3.1-4.5,6.7-8.1,10.8-10.8c4.1-2.7,8.4-4.7,12.9-6.1c4.5-1.4,9.2-2.3,14-2.7
		C710.1,182.4,714.8,182.2,719.5,182.2z M686.7,243c0,7.3,0.9,13.8,2.6,19.5c1.8,5.9,5.3,10.5,10.5,13.9c5.3,3.4,11.4,5.1,18.5,5.1
		c5.2,0,10.2-1.1,15.1-3.4c4.9-2.3,8.6-5.6,11.1-10c2.5-4.2,4-8.1,4.4-11.8c0.5-3.6,0.7-5.9,0.8-6.9c0.1-1,0.2-1.9,0.2-2.7
		c0-6.2-0.8-12.1-2.5-17.7c-1.7-5.6-4.6-10.1-8.7-13.5c-2.7-1.9-6-3.3-10.1-4.4c-4.1-1-8.1-1.6-12-1.6c-3.8,0-8.4,0.9-13.6,2.6
		c-5.2,1.7-9.2,5.3-12.1,10.9C688.1,228.6,686.7,235.3,686.7,243z"/>
	<path d="M846.1,183.1c6.1,0,11.7,0.3,16.8,0.8c5.1,0.5,9.7,1.4,13.8,2.8c4.1,1.3,7.7,3.2,10.8,5.6c3.1,2.4,5.7,5.6,7.8,9.4
		c4.4,7.6,7.5,15,9.1,22.1c1.7,7.1,2.5,14.5,2.5,22.2c0,7.5-0.7,14.6-2.2,21.3c-1.4,6.7-4.3,13.7-8.4,21.1
		c-4.1,7.4-10,12.5-17.7,15.2c-7.7,2.7-17.5,4.1-29.4,4.1h-59.6V183.1H846.1z M819.3,281.3h16.6h5.7c7.3,0,13.2-0.8,17.7-2.5
		c4.5-1.6,8-4.5,10.3-8.7c2.3-4.2,3.9-8.3,4.7-12.3s1.2-8.2,1.2-12.6c0-9.5-1.6-16.8-4.9-21.9c-1.6-2.7-3.3-4.8-5.2-6.5
		c-1.9-1.7-3.9-3-6.2-4c-2.3-1-4.8-1.7-7.7-2c-2.9-0.3-6.1-0.5-9.8-0.5h-5h-17.4V281.3z"/>
</g>
<g>
</g>
<g>
	<rect x="-45.6" y="315.8" class="st2" width="2.2" height="0"/>
</g>
<g>
</g>
<g>
</g>
<g>
</g>
<g>
</g>
<g>
</g>
<g>
</g>
<g>
</g>
<g>
</g>
<g>
</g>
<g>
</g>
<g>
</g>
<g>
</g>
<g>
</g>
<g>
</g>
<g>
</g>
</svg>
