<svg version="1.1" id="Layer_1" xmlns="http://www.w3.org/2000/svg" xmlns:xlink="http://www.w3.org/1999/xlink" x="0px" y="0px" width="1500px" height="325px" viewBox="0 0 1500 325" enable-background="new 0 0 1500 325" xml:space="preserve">
<defs><style>.cls-1{fill:#f0f;}.cls-2{stroke:#000;stroke-miterlimit:10;stroke-width:7px;}</style></defs><path class="cls-1" d="M842.85,195.69a96.82,96.82,0,0,1-1.27-16.16,86.41,86.41,0,0,1,1.27-16q.49-11.52,7.68-17.74t18.09-6.22a36.63,36.63,0,0,1,9.28,1.24A22.78,22.78,0,0,1,887,146q4.69,3.79,7.17,12.63a77.53,77.53,0,0,1,2.48,20.88c0,1.65,0,3-.13,4.05s-.17,2.12-.25,3.21c0,.15,0,.32-.06.48L943.67,176a130.91,130.91,0,0,0-3-28.21,62.86,62.86,0,0,0-11-24,38.22,38.22,0,0,0-12.64-10.54,65.17,65.17,0,0,0-15.87-5.75A107.76,107.76,0,0,0,883.67,105q-9.07-.51-17.2-.52a152,152,0,0,0-16.07.92,89.52,89.52,0,0,0-16.89,3.47,62.14,62.14,0,0,0-15.75,7.39,41.6,41.6,0,0,0-12.38,12.57q-6.74,11-9.39,27.62c-.18,3.58-.34,6.5-.51,8.77s-.26,5-.26,8.11a149.22,149.22,0,0,0,4.19,36l.24.88,44.05-10.48C843.37,198.46,843.08,197.11,842.85,195.69Z" transform="translate(-85.22 -19.1)"/><path class="cls-1" d="M897.58,195.27a27.64,27.64,0,0,1-.52,3.19q-.45,2-1.21,5.17a39.64,39.64,0,0,1-4,12.3q-3,5.76-10.73,9.16a34.87,34.87,0,0,1-12.82,2.49,19.94,19.94,0,0,1-11.94-2.42,21.51,21.51,0,0,1-7.94-8.44,38.29,38.29,0,0,1-3.4-8.95l-44,10.48q4.44,16.75,13,25.43,9.4,8.52,23.94,12a144.59,144.59,0,0,0,33.34,3.47q20.31,0,34.6-4t21.78-10.67q7.62-6.81,12.51-21.93T945,184.65c0-.23,0-.44,0-.66Z" transform="translate(-85.22 -19.1)"/><path class="cls-1" d="M1004.63,143.66h9.4q7.25,0,12.57.26a37.25,37.25,0,0,1,9.28,1.51,21.43,21.43,0,0,1,6.79,3.47,17.45,17.45,0,0,1,2.85,2.85l48.11-11.44a86.18,86.18,0,0,0-6.83-14.85q-7-13-22.73-16.95t-41.4-4H960.19v67.54l44.44-10.58Z" transform="translate(-85.22 -19.1)"/><path class="cls-1" d="M1093.63,147.31l-48.11,11.44a25.24,25.24,0,0,1,2.29,3.43q4.95,7.45,5,23.56a48.67,48.67,0,0,1-.89,13.61,27.52,27.52,0,0,1-5.34,11.52A24.19,24.19,0,0,1,1036,218.4q-6.6,2.55-16.51,1.64h-14.86V168.48l-44.44,10.58V312.58h44.44V225.67l18.55,30.89h7.49q22.61,0,36.25-4.58a34.77,34.77,0,0,0,20.39-17.41A82.48,82.48,0,0,0,1096.2,210a156.11,156.11,0,0,0,2-26.31,158.52,158.52,0,0,0-2-26.45A64.13,64.13,0,0,0,1093.63,147.31Z" transform="translate(-85.22 -19.1)"/><polygon points="701.63 55.74 758.42 55.74 785.14 0 570.7 0 570.7 55.74 646.26 55.74 646.26 208.94 701.63 195.77 701.63 55.74"/><polygon points="646.26 216.94 646.26 292.13 701.63 292.13 701.63 203.77 646.26 216.94"/><path d="M192.46,27.68,178,50.89H130.58a24.78,24.78,0,0,0-7.65.44,13,13,0,0,0-5,2.26,7.71,7.71,0,0,0-2.61,3.54,18.73,18.73,0,0,0-1,4.47,12.49,12.49,0,0,0,1.85,6A7.89,7.89,0,0,0,122,71.19a66.94,66.94,0,0,0,10.48.64h18.93q13.37,0,21.11,3.71a25.82,25.82,0,0,1,7.41,5A32.66,32.66,0,0,1,185.73,88a39.45,39.45,0,0,1,3.87,9.55A42.67,42.67,0,0,1,191,108.65q0,13-5.64,22.64-5.24,9.35-14,12.17-8.7,2.49-22.8,2.5H85.87V122.67h56.32a31.85,31.85,0,0,0,8.78-.48,17.34,17.34,0,0,0,6.12-2.46,9.87,9.87,0,0,0,3.46-3.79,9,9,0,0,0,.89-4.63,10.69,10.69,0,0,0-3.63-7.65q-3.47-3.22-10.07-2.58h-23.6q-12,0-19.9-3.63a28.69,28.69,0,0,1-7.66-5.39,35.44,35.44,0,0,1-6-7.82,40,40,0,0,1-4-9.79,44.27,44.27,0,0,1-1.41-11.32,43.28,43.28,0,0,1,4.92-20.62,23.71,23.71,0,0,1,6.28-7.33A30.37,30.37,0,0,1,105,30.62a49.25,49.25,0,0,1,10.32-2.29,98.68,98.68,0,0,1,11.48-.65h65.66Z" transform="translate(-85.22 -19.1)"/><path d="M201.32,27.68h28.2V73.37h41.73V27.68h28.12V146H271.25V77.31L257.4,98.9H229.52V146h-28.2Z" transform="translate(-85.22 -19.1)"/><path class="cls-1" d="M386.62,27.68,429.57,146H399.84l-7.9-21.44H364.71l-13.86-23.44-17,44.88H303.32L347.07,27.68Zm-35,71.22h31.66L367.53,54.35Z" transform="translate(-85.22 -19.1)"/><path d="M434.72,27.68h63.49q6.12,0,11,.41A49.14,49.14,0,0,1,518,29.54a22.79,22.79,0,0,1,6.93,3.14,25.55,25.55,0,0,1,5.72,5.56,37.3,37.3,0,0,1,7.13,14.26,62.82,62.82,0,0,1,1.73,14.42,62.08,62.08,0,0,1-1.37,13.21A25.28,25.28,0,0,1,532.93,91a24.21,24.21,0,0,1-9.1,7.09,48.56,48.56,0,0,1-8.7,3.22,30.62,30.62,0,0,1-6.69.73L537.69,146H504.81L463.08,81.74V146H434.72Zm28.36,50.76H490q11,.72,15.59-2.74t4.87-11.44q.49-6.93-4.55-10.31t-15.27-3.06H463.08Z" transform="translate(-85.22 -19.1)"/><path d="M548.24,27.68H637L624.29,50.89H576.44V77.31H634.2v23.13H576.44v22.23H634.2V146h-86Z" transform="translate(-85.22 -19.1)"/><path class="cls-1" d="M187.62,186l34.15-7.59L243.71,221l22-43.39L299.15,181,307.9,294.7,269,295.86l-2.48-59.73-9.07,25.24L230,261.7,221.44,238l-3.3,59.39-37.45-1Z" transform="translate(-85.22 -19.1)"/><path d="M432.14,236v.33c-.17,35.64-21.94,61.38-57.75,61.38-37.29,0-58.9-28.21-58.9-60.38,0-35.48,23.26-59.07,58.41-59.07C409.54,178.22,432,201.32,432.14,236ZM393,237.12C393,222.27,385,212,374.56,212c-10.89,0-19,9.41-19,23.92,0,11.39,5.28,25.74,19.14,25.74C385.61,261.54,393,250.65,393,237.12Z" transform="translate(-85.22 -19.1)"/><path d="M478.34,179.37c41.25,0,67.65,15.84,69.13,54.12,1.82,48.34-28.54,63-79.19,63-7.43,0-15.18-.33-23.43-.83L443,182.51A231.23,231.23,0,0,1,478.34,179.37Zm30,56.59c-.66-19-12.54-24.25-26.89-22.1l.66,47.35C498.47,262.36,509,253.12,508.37,236Z" transform="translate(-85.22 -19.1)"/><line class="cls-2" x1="56.28" y1="145.4" x2="492.28" y2="145.4"/></svg>
