<?xml version="1.0" encoding="utf-8"?>
<!-- Generator: Adobe Illustrator 25.2.1, SVG Export Plug-In . SVG Version: 6.00 Build 0)  -->
<svg version="1.1" id="Layer_1" xmlns="http://www.w3.org/2000/svg" xmlns:xlink="http://www.w3.org/1999/xlink" x="0px" y="0px"
	 viewBox="0 0 1920 1080" style="enable-background:new 0 0 1920 1080;" xml:space="preserve">
<style type="text/css">
	.st0{fill:none;stroke:#000000;stroke-width:15;stroke-miterlimit:10;}
	.st1{fill:#FF1D25;}
	.st2{fill:none;}
</style>
<path class="st0" d="M1301.5,680.5H68.5c-8.3,0-15-6.7-15-15v-240c0-8.3,6.7-15,15-15h1233c8.3,0,15,6.7,15,15v240
	C1316.5,673.8,1309.8,680.5,1301.5,680.5z"/>
<g>
	<g>
		<path d="M1765.2-882.6c1.9,0,1.9-3,0-3C1763.2-885.6,1763.2-882.6,1765.2-882.6L1765.2-882.6z"/>
	</g>
</g>
<g>
	<g>
		<path d="M2218.6-528.1c1.9,0,1.9-3,0-3C2216.7-531.1,2216.7-528.1,2218.6-528.1L2218.6-528.1z"/>
	</g>
</g>
<g>
	<path class="st1" d="M1475.9,404.7c8,0,16.5,0.3,25.4,0.8c8.9,0.5,17.6,1.7,25.9,3.6c8.3,1.9,16.1,4.7,23.5,8.5
		c7.3,3.8,13.5,9,18.7,15.6c7.9,10.6,13.3,22.4,16.2,35.5c2.9,13.1,4.4,27.3,4.4,42.6c0,22.4-2.4,41.1-7.2,56
		c-4.8,14.9-11,25.7-18.5,32.4c-7.4,6.6-18.1,11.8-32.2,15.8c-14.1,3.9-31.1,5.9-51.1,5.9c-18.5,0-34.9-1.7-49.3-5.1
		c-14.3-3.4-26.1-9.3-35.4-17.7c-8.6-8.8-15.1-21.7-19.5-38.9c-4.1-16.6-6.2-34.4-6.2-53.2c0-4.6,0.1-8.6,0.4-12
		c0.2-3.4,0.5-7.7,0.8-13c2.6-16.4,7.3-30,13.9-40.8c4.9-7.6,11-13.8,18.3-18.6c7.3-4.8,15.1-8.4,23.3-10.9c8.2-2.5,16.5-4.2,25-5.1
		C1460.6,405.2,1468.5,404.7,1475.9,404.7z M1441,491.9c-1.3,6.6-1.9,14.4-1.9,23.6c0,8.5,0.6,16.5,1.9,23.9
		c1.2,7.4,3.3,13.8,6.3,19.2c2.9,5.4,6.8,9.6,11.7,12.5c4.9,2.9,10.8,4.1,17.6,3.6c6.4,0,12.7-1.2,19-3.7
		c7.6-3.4,12.9-7.9,15.9-13.5c2.9-5.7,4.9-11.7,5.9-18.2c0.8-3.1,1.3-5.6,1.8-7.6c0.4-2,0.7-3.8,0.8-5.4c0.1-1.6,0.2-3.2,0.4-4.7
		c0.1-1.5,0.2-3.5,0.2-6c0-11.9-1.2-22.1-3.7-30.8s-6-14.9-10.6-18.7c-4.4-3.9-8.9-6.4-13.5-7.6c-4.6-1.2-9.2-1.8-13.7-1.8
		c-10.8,0-19.7,3.1-26.7,9.2C1445.3,471.9,1441.5,480.6,1441,491.9z"/>
	<path class="st1" d="M1614.4,404.7h92.3c25.3,0,45.7,2,61.2,5.9c15.5,3.9,26.7,12.3,33.6,25c7.3,12.6,11.9,24.8,13.9,36.6
		c2,11.7,3,24.8,3,39.1s-1,27.3-3,38.9c-2,11.6-6.4,23.7-13.1,36.4c-6.6,12.6-16.7,21.2-30.1,25.7c-13.4,4.5-31.3,6.8-53.6,6.8
		h-11.1l-27.4-45.6v128.4h-65.7V404.7z M1680,565.1h22c9.8,0.9,17.9,0.1,24.4-2.4c6.5-2.5,11.7-6.2,15.6-11.1
		c3.9-4.9,6.5-10.6,7.9-17c1.4-6.4,1.8-13.2,1.3-20.1c0-15.9-2.4-27.5-7.3-34.8c-2.3-4-4.8-7.1-7.6-9.3c-2.8-2.2-6.2-3.9-10-5.1
		c-3.9-1.2-8.4-2-13.7-2.2c-5.3-0.3-11.4-0.4-18.6-0.4H1680V565.1z"/>
</g>
<g>
	<path d="M1141.2,282.9H1458l-39.5,82.4h-83.9v337.4h-81.8V365.3h-111.6V282.9z"/>
</g>
<g>
	<path d="M229.2,476.2l-17.6,28.1h-52.1h-5.4c-3.7-0.3-6.8-0.1-9.3,0.5c-2.5,0.6-4.5,1.5-6,2.7c-1.5,1.2-2.6,2.6-3.2,4.3
		s-1,3.5-1.2,5.4c0,2.1,0.7,4.6,2.2,7.2c1.5,2.4,3.8,3.9,6.9,4.4c3.1,0.5,7.4,0.8,12.7,0.8h22.9c10.8,0,19.3,1.5,25.6,4.5
		c3.3,1.4,6.2,3.5,9,6.1c2.7,2.6,5.1,5.6,7.1,9.1c2,3.5,3.5,7.3,4.7,11.6c1.1,4.3,1.7,8.7,1.7,13.4c0,10.5-2.3,19.7-6.8,27.4
		c-4.2,7.6-9.9,12.5-17,14.7c-7,2-16.2,3-27.6,3h-76v-28.2h64.6h3.6c4.1,0.3,7.6,0.1,10.6-0.6c3-0.7,5.5-1.6,7.4-3s3.4-2.9,4.2-4.6
		c0.8-1.7,1.2-3.6,1.1-5.6c-0.1-3.6-1.6-6.7-4.4-9.3c-2.8-2.6-6.9-3.6-12.2-3.1h-5.4h-23.2c-9.7,0-17.7-1.5-24.1-4.4
		c-3.4-1.6-6.5-3.8-9.3-6.5c-2.8-2.7-5.2-5.9-7.3-9.5s-3.6-7.5-4.8-11.9c-1.1-4.3-1.7-8.9-1.7-13.7c0-9.2,2-17.5,6-25
		c2-3.6,4.6-6.5,7.6-8.9c3.1-2.3,6.5-4.2,10.4-5.5c3.9-1.3,8-2.3,12.5-2.8c4.5-0.5,9.1-0.8,13.9-0.8h5.6H229.2z"/>
	<path d="M240,476.2h34.2v55.4h50.6v-55.4h34.1v143.4h-34.1v-83.2l-16.8,26.2h-33.8v57H240V476.2z"/>
	<path class="st1" d="M464.6,476.2l52.1,143.4h-36l-9.6-26h-33l-16.8-28.4l-20.6,54.4h-37l53-143.4H464.6z M422.2,562.6h38.4
		l-19.1-54L422.2,562.6z"/>
	<path d="M522.9,476.2h77c4.9,0,9.4,0.2,13.3,0.5c3.9,0.3,7.5,0.9,10.6,1.8c3.1,0.8,5.9,2.1,8.4,3.8c2.5,1.7,4.8,3.9,6.9,6.7
		c4.4,5.6,7.2,11.4,8.6,17.3c1.4,5.9,2.1,11.8,2.1,17.5c0,5.6-0.6,10.9-1.7,16c-1.1,5.1-3.2,9.5-6.2,13.2c-2.9,3.7-6.6,6.6-11,8.6
		c-4.4,2-7.9,3.3-10.5,3.9c-2.6,0.6-5.3,0.9-8.1,0.9l35.4,53.2h-39.8l-50.6-77.8v77.8h-34.4V476.2z M557.2,537.8h28.6h4
		c8.9,0.6,15.2-0.5,18.9-3.3c3.7-2.8,5.6-7.4,5.9-13.9c0.4-5.6-1.4-9.8-5.5-12.5c-4.1-2.7-10.2-4-18.5-3.7h-4h-29.4V537.8z"/>
	<path d="M660.5,476.2h107.6l-15.4,28.1h-58v32h70v28h-70v27h70v28.2H660.5V476.2z"/>
	<path d="M778.2,476.2h55.2l26.5,115.1l26.8-115.1h55.6v143.4h-31.3V503.4l-28,116.2h-47.2l-26.3-119.4v119.4h-31.2V476.2z"/>
	<path class="st1" d="M1023.3,475.2c4.8,0,9.8,0.3,14.8,0.9c5.1,0.6,10,1.7,14.8,3.1s9.2,3.5,13.4,6c4.1,2.5,7.7,5.7,10.8,9.6
		c5.6,7,9.6,15.3,12.1,25.1c2.5,9.8,3.7,19.7,3.7,29.8c0,12.2-1.6,23.2-4.7,33s-7.5,17.5-13.1,23.1c-5.2,5.5-11.1,9.1-17.6,10.9
		c-6.2,1.6-12.1,2.7-17.7,3.2c-5.6,0.5-11,0.8-16.1,0.8c-10.9,0-21-1.1-30.3-3.2c-9.3-2.1-17.1-6-23.5-11.6
		c-6.3-5.6-11.1-14-14.5-25.2s-5-22.8-5-34.7c0-1.4,0-2.7,0-3.9s0.1-2.1,0.2-2.9l2.4-15.8c1.3-8.8,4.8-17.2,10.4-25.2
		c3.6-5.2,7.7-9.3,12.4-12.4c4.7-3.1,9.6-5.4,14.8-7c5.2-1.6,10.6-2.6,16.1-3.1C1012.5,475.4,1017.9,475.2,1023.3,475.2z
		 M985.6,545.2c0,8.4,1,15.9,3,22.5c2,6.8,6.1,12.1,12.1,16s13.2,5.8,21.3,5.8c6,0,11.8-1.3,17.4-3.9c5.6-2.6,9.9-6.4,12.8-11.5
		c2.9-4.8,4.6-9.3,5.1-13.6c0.5-4.2,0.8-6.8,1-8c0.1-1.1,0.2-2.2,0.2-3.1c0-7.2-1-13.9-2.9-20.4c-2-6.4-5.3-11.6-10.1-15.6
		c-3.1-2.1-6.9-3.8-11.6-5c-4.7-1.2-9.3-1.8-13.8-1.8c-4.4,0-9.6,1-15.6,3c-6,2-10.6,6.1-13.9,12.5
		C987.2,528.6,985.6,536.3,985.6,545.2z"/>
	<path d="M1169,476.2c7,0,13.5,0.3,19.3,0.9s11.1,1.6,15.8,3.2c4.7,1.5,8.8,3.7,12.4,6.5c3.6,2.8,6.6,6.4,9,10.8
		c5.1,8.8,8.6,17.3,10.5,25.4c1.9,8.1,2.9,16.7,2.9,25.6c0,8.7-0.8,16.8-2.5,24.5s-4.9,15.8-9.7,24.3c-4.8,8.5-11.5,14.4-20.4,17.5
		c-8.8,3.1-20.1,4.7-33.8,4.7h-68.6V476.2H1169z M1138.1,589.2h19h6.5c8.4,0,15.2-0.9,20.4-2.8c5.2-1.9,9.1-5.2,11.8-10
		c2.7-4.8,4.5-9.5,5.4-14.1c0.9-4.6,1.4-9.4,1.4-14.5c0-10.9-1.9-19.3-5.7-25.2c-1.8-3.1-3.8-5.6-6-7.5s-4.5-3.5-7.1-4.6
		c-2.6-1.1-5.6-1.9-8.9-2.3s-7.1-0.6-11.2-0.6h-5.8h-20V589.2z"/>
</g>
<g>
</g>
<g>
	<rect x="21.4" y="272.8" class="st2" width="2.2" height="0"/>
</g>
<g>
</g>
<g>
</g>
<g>
</g>
<g>
</g>
<g>
</g>
<g>
</g>
<g>
</g>
<g>
</g>
<g>
</g>
<g>
</g>
<g>
</g>
<g>
</g>
<g>
</g>
<g>
</g>
<g>
</g>
</svg>
